<svg width="376" height="151" viewBox="0 0 376 151" fill="none" xmlns="http://www.w3.org/2000/svg">
<mask id="mask0_516_8007" style="mask-type:alpha" maskUnits="userSpaceOnUse" x="0" y="0" width="376" height="151">
<rect x="0.558594" y="0.996094" width="375" height="149.035" fill="#C4C4C4"/>
</mask>
<g mask="url(#mask0_516_8007)">
<g filter="url(#filter0_i_516_8007)">
<path d="M240.313 32.3038L240.075 30.6384L240.075 29.2109L241.859 30.0436L243.525 31.828L247.569 33.9692L248.997 32.8986L252.209 33.6124L250.424 34.9209L248.997 35.7536H246.974H245.071L237.934 44.1995L231.391 53.8351C237.2 58.4595 240.128 61.329 245.071 66.6824L237.934 72.9872L228.774 64.0654L224.016 59.0692C224.016 59.0692 222.945 58.1175 222.588 56.2142C222.231 54.3109 222.588 53.0024 222.945 51.4559C223.302 49.9095 231.034 41.5825 231.034 41.5825L240.313 32.3038Z" fill="white"/>
</g>
<path d="M245.547 66.9201C241.739 63.0413 234.995 56.2999 230.32 53.1211" stroke="#06012F" stroke-width="2" stroke-linecap="round"/>
<g filter="url(#filter1_i_516_8007)">
<path d="M256.066 17.7529C257.009 16.841 258.406 16.5816 259.615 17.094C261.817 18.0283 262.303 20.9338 260.525 22.5342L249.177 32.7469C248.276 33.5585 246.974 33.7467 245.879 33.2236C243.992 32.3222 243.584 29.8152 245.088 28.3622L256.066 17.7529Z" fill="#E9E9F2"/>
</g>
<path d="M256.76 18.472C257.415 17.839 258.385 17.6589 259.224 18.0146C260.753 18.6631 261.09 20.68 259.856 21.7909L248.508 32.0036C247.907 32.5445 247.04 32.6699 246.31 32.3213C245.053 31.7205 244.781 30.0497 245.783 29.0813L256.76 18.472Z" stroke="#06012F" stroke-width="2"/>
<g filter="url(#filter2_i_516_8007)">
<path d="M247.461 22.7476C247.909 22.1202 248.789 21.9919 249.398 22.4652L250.2 23.0893C250.348 23.2047 250.482 23.3376 250.599 23.4852L252.208 25.5233L250.674 25.9493C250.282 26.0582 249.942 26.3044 249.717 26.6429L249.683 26.6933C249.471 27.0121 249.147 27.2402 248.775 27.3331L248.5 27.4018C248.144 27.491 247.861 27.7613 247.755 28.1134C247.641 28.494 247.32 28.7766 246.928 28.8419L246.212 28.9613C245.705 29.0458 245.243 29.3046 244.906 29.6931L244.874 29.7304C244.27 30.4278 243.312 30.7058 242.428 30.4406L240.92 29.9882C240.532 29.8718 240.209 29.6002 240.028 29.2376C239.71 28.6022 239.893 27.8305 240.461 27.4042L240.995 27.0039C241.248 26.8137 241.55 26.6989 241.866 26.6725L241.969 26.664C242.491 26.6204 242.953 26.3076 243.188 25.8385L243.232 25.7497C243.416 25.3825 243.762 25.1232 244.166 25.0497C244.584 24.9737 244.938 24.6988 245.117 24.313L245.184 24.1663C245.408 23.6821 245.876 23.3567 246.408 23.3158L246.461 23.3117C246.861 23.2809 247.228 23.0743 247.461 22.7476Z" fill="white"/>
</g>
<path d="M237.117 73.7036C237.512 74.0888 238.146 74.0803 238.531 73.6846C238.916 73.2888 238.907 72.6557 238.512 72.2705L237.117 73.7036ZM222.231 53.716L223.229 53.7688L222.231 53.716ZM240.669 32.1847L241.334 32.9315L241.82 32.4991L241.622 31.8799L240.669 32.1847ZM239.718 29.2108L240.67 28.906L239.718 29.2108ZM240.669 26.9506L240.098 26.1296L240.669 26.9506ZM243.286 26.9506L242.871 27.8603L243.286 26.9506ZM245.071 29.2108L246.045 29.4366L245.071 29.2108ZM243.286 30.6383L243.327 31.6375L243.286 30.6383ZM242.297 29.069C241.89 28.6954 241.258 28.7224 240.884 29.1292C240.511 29.536 240.538 30.1686 240.944 30.5422L242.297 29.069ZM237.814 72.987C238.512 72.2705 238.512 72.2704 238.512 72.2703C238.511 72.2702 238.511 72.2701 238.511 72.2699C238.511 72.2695 238.51 72.2689 238.509 72.2682C238.508 72.2666 238.505 72.2643 238.502 72.2611C238.496 72.2549 238.486 72.2456 238.473 72.2332C238.448 72.2085 238.41 72.1718 238.361 72.1237C238.263 72.0277 238.118 71.8865 237.933 71.7061C237.564 71.3454 237.036 70.8279 236.398 70.2013C235.122 68.9479 233.411 67.2586 231.666 65.5142C229.921 63.7689 228.147 61.9723 226.744 60.503C226.042 59.7678 225.438 59.1199 224.98 58.6041C224.497 58.0618 224.236 57.7317 224.159 57.6029L222.444 58.6319C222.634 58.9492 223.027 59.4183 223.485 59.9331C223.966 60.4744 224.589 61.1416 225.297 61.8841C226.716 63.3701 228.503 65.1794 230.252 66.9284C232.002 68.6784 233.718 70.372 234.996 71.6279C235.635 72.2559 236.165 72.7746 236.536 73.1364C236.721 73.3173 236.866 73.459 236.965 73.5555C237.014 73.6038 237.052 73.6408 237.078 73.6657C237.091 73.6781 237.1 73.6876 237.107 73.6939C237.11 73.6971 237.112 73.6995 237.114 73.7011C237.115 73.7019 237.116 73.7025 237.116 73.7029C237.116 73.7032 237.116 73.7033 237.116 73.7034C237.117 73.7035 237.117 73.7036 237.814 72.987ZM224.159 57.6029C223.651 56.7571 223.419 56.203 223.306 55.6936C223.191 55.1773 223.183 54.6375 223.229 53.7688L221.232 53.6631C221.185 54.561 221.177 55.3296 221.353 56.1264C221.531 56.9299 221.881 57.6933 222.444 58.6319L224.159 57.6029ZM223.229 53.7688C223.292 52.5781 223.695 51.7127 224.629 50.1955L222.926 49.1473C221.956 50.723 221.323 51.9478 221.232 53.6631L223.229 53.7688ZM224.629 50.1955C224.814 49.894 225.45 49.0993 226.496 47.9025C227.516 46.7348 228.872 45.2458 230.439 43.5897C233.574 40.2761 237.538 36.3125 241.334 32.9315L240.004 31.438C236.153 34.8683 232.147 38.8748 228.986 42.2151C227.405 43.886 226.031 45.3949 224.99 46.5866C223.974 47.7493 223.216 48.6756 222.926 49.1473L224.629 50.1955ZM241.622 31.8799C241.436 31.2992 241.291 30.8461 241.146 30.393C241.001 29.9398 240.856 29.4867 240.67 28.906L238.765 29.5156C238.951 30.0962 239.096 30.5494 239.241 31.0025C239.386 31.4557 239.531 31.9088 239.717 32.4895L241.622 31.8799ZM240.67 28.906C240.547 28.5205 240.61 28.3805 240.643 28.3181C240.708 28.1947 240.861 28.0352 241.24 27.7716L240.098 26.1296C239.691 26.4128 239.182 26.8027 238.875 27.3824C238.536 28.023 238.517 28.7397 238.765 29.5156L240.67 28.906ZM241.24 27.7716C241.639 27.4941 242.051 27.4862 242.871 27.8603L243.701 26.0408C242.662 25.5664 241.377 25.24 240.098 26.1296L241.24 27.7716ZM242.871 27.8603C243.348 28.078 243.716 28.3047 243.931 28.5323C244.112 28.7234 244.129 28.8423 244.096 28.985L246.045 29.4366C246.266 28.4837 245.903 27.706 245.384 27.1575C244.899 26.6456 244.248 26.2901 243.701 26.0408L242.871 27.8603ZM244.096 28.985C244.006 29.3762 243.73 29.6196 243.246 29.6391L243.327 31.6375C244.626 31.585 245.732 30.7841 246.045 29.4366L244.096 28.985ZM243.246 29.6391C243.259 29.6386 243.212 29.6411 243.093 29.5931C242.982 29.5483 242.856 29.4789 242.727 29.3948C242.6 29.3124 242.488 29.2273 242.408 29.1622C242.368 29.1302 242.337 29.1042 242.318 29.0874C242.308 29.079 242.302 29.073 242.298 29.0698C242.296 29.0682 242.295 29.0672 242.295 29.0671C242.295 29.067 242.295 29.0671 242.296 29.0674C242.296 29.0676 242.296 29.0678 242.296 29.0681C242.296 29.0682 242.296 29.0683 242.297 29.0685C242.297 29.0686 242.297 29.0687 242.297 29.0687C242.297 29.0688 242.297 29.069 241.621 29.8056C240.944 30.5422 240.945 30.5423 240.945 30.5424C240.945 30.5425 240.945 30.5426 240.945 30.5427C240.945 30.5429 240.946 30.5432 240.946 30.5434C240.946 30.5439 240.947 30.5444 240.948 30.5449C240.949 30.5461 240.95 30.5474 240.952 30.549C240.955 30.5521 240.96 30.556 240.965 30.5607C240.976 30.5701 240.99 30.5826 241.007 30.5977C241.042 30.628 241.09 30.6691 241.15 30.7174C241.268 30.813 241.437 30.9416 241.636 31.0711C241.976 31.2926 242.625 31.6658 243.327 31.6375L243.246 29.6391Z" fill="#06012F"/>
<g filter="url(#filter3_i_516_8007)">
<ellipse cx="251.018" cy="31.4706" rx="2.14123" ry="2.61706" fill="white"/>
</g>
<path d="M230.662 53.304C230.369 53.7723 230.511 54.3893 230.98 54.6821C231.448 54.9749 232.065 54.8327 232.358 54.3644L230.662 53.304ZM245.071 35.7527L245.281 34.7751L244.714 34.6529L244.326 35.0851L245.071 35.7527ZM249.353 35.7527L249.703 36.6896L249.353 35.7527ZM253.16 31.4703L254.156 31.3806L253.16 31.4703ZM251.138 28.3774L251.195 27.379L251.138 28.3774ZM248.877 29.8049L249.758 30.2783L248.877 29.8049ZM248.464 33.4736C248.716 33.9649 249.319 34.1586 249.81 33.9062C250.302 33.6539 250.495 33.051 250.243 32.5598L248.464 33.4736ZM232.358 54.3644C236.732 47.3684 239.505 43.4585 245.815 36.4203L244.326 35.0851C237.929 42.2205 235.088 46.225 230.662 53.304L232.358 54.3644ZM245.071 35.7527C244.86 36.7303 244.861 36.7303 244.861 36.7304C244.861 36.7304 244.861 36.7304 244.861 36.7305C244.861 36.7305 244.862 36.7306 244.862 36.7307C244.863 36.7308 244.864 36.731 244.865 36.7313C244.867 36.7317 244.87 36.7323 244.873 36.7331C244.88 36.7345 244.89 36.7365 244.902 36.7389C244.926 36.7438 244.959 36.7506 245.002 36.7588C245.087 36.7751 245.209 36.7973 245.358 36.8218C245.656 36.8706 246.071 36.9293 246.541 36.9686C247.436 37.0433 248.698 37.0647 249.703 36.6896L249.004 34.8159C248.442 35.0256 247.563 35.0469 246.708 34.9755C246.303 34.9417 245.941 34.8907 245.681 34.8481C245.552 34.8269 245.449 34.808 245.379 34.7947C245.345 34.788 245.319 34.7828 245.302 34.7794C245.294 34.7777 245.288 34.7764 245.284 34.7757C245.282 34.7754 245.281 34.7751 245.281 34.775C245.281 34.775 245.281 34.775 245.281 34.775C245.281 34.775 245.281 34.775 245.281 34.775C245.281 34.775 245.281 34.7751 245.281 34.7751C245.281 34.7751 245.281 34.7751 245.071 35.7527ZM249.703 36.6896C250.805 36.2783 251.956 35.7056 252.815 34.8711C253.706 34.0058 254.288 32.8469 254.156 31.3806L252.164 31.56C252.233 32.3222 251.96 32.9133 251.421 33.4365C250.851 33.9904 249.998 34.4446 249.004 34.8159L249.703 36.6896ZM254.156 31.3806C254.087 30.616 253.926 29.7062 253.524 28.9474C253.099 28.146 252.356 27.4459 251.195 27.379L251.08 29.3757C251.36 29.3918 251.564 29.5195 251.757 29.8845C251.973 30.2921 252.103 30.8872 252.164 31.56L254.156 31.3806ZM251.195 27.379C250.465 27.337 249.807 27.5178 249.246 27.8925C248.7 28.2578 248.297 28.7731 247.997 29.3314L249.758 30.2783C249.953 29.9171 250.158 29.6886 250.358 29.555C250.544 29.4309 250.768 29.3578 251.08 29.3757L251.195 27.379ZM247.997 29.3314C247.729 29.8296 247.679 30.3724 247.7 30.8244C247.721 31.2846 247.82 31.7342 247.93 32.1103C248.042 32.4908 248.173 32.8264 248.275 33.0653C248.327 33.1857 248.372 33.2839 248.405 33.3537C248.422 33.3886 248.435 33.4166 248.445 33.4368C248.45 33.4469 248.454 33.4551 248.458 33.4613C248.459 33.4643 248.46 33.4669 248.461 33.469C248.462 33.47 248.462 33.4709 248.463 33.4717C248.463 33.4721 248.463 33.4725 248.463 33.4728C248.463 33.4729 248.464 33.4732 248.464 33.4732C248.464 33.4734 248.464 33.4736 249.353 33.0167C250.243 32.5598 250.243 32.56 250.243 32.5601C250.243 32.5602 250.243 32.5604 250.243 32.5605C250.243 32.5606 250.243 32.5608 250.243 32.5609C250.244 32.5612 250.244 32.5614 250.244 32.5614C250.244 32.5614 250.243 32.561 250.243 32.5601C250.242 32.5582 250.24 32.5545 250.237 32.549C250.232 32.538 250.223 32.5199 250.211 32.4954C250.188 32.4462 250.154 32.372 250.114 32.2785C250.033 32.0897 249.933 31.8317 249.85 31.5489C249.766 31.2617 249.709 30.9781 249.697 30.7314C249.686 30.4765 249.726 30.3385 249.758 30.2783L247.997 29.3314Z" fill="#06012F"/>
<path d="M241.934 26.3698C241.876 26.9191 242.275 27.411 242.824 27.4685C243.373 27.5261 243.865 27.1274 243.923 26.5781L241.934 26.3698ZM244.058 24.935L243.94 25.928L244.058 24.935ZM245.978 26.0245L245.371 26.8194L245.978 26.0245ZM247.673 27.9571L248.65 27.7438L247.673 27.9571ZM247.019 29.1107L247.04 30.1105L247.019 29.1107ZM245.475 27.7763C244.946 27.6177 244.389 27.918 244.23 28.4471C244.072 28.9761 244.372 29.5335 244.901 29.6921L245.475 27.7763ZM242.928 26.474C243.923 26.5781 243.923 26.5784 243.923 26.5787C243.923 26.5788 243.923 26.579 243.923 26.5792C243.923 26.5795 243.922 26.5798 243.922 26.5801C243.922 26.5807 243.922 26.5811 243.922 26.5815C243.922 26.5823 243.922 26.5827 243.922 26.5827C243.922 26.5828 243.922 26.5814 243.923 26.5788C243.923 26.5735 243.925 26.5631 243.927 26.5484C243.931 26.5188 243.939 26.473 243.95 26.417C243.974 26.3002 244.01 26.1622 244.06 26.0398C244.115 25.9062 244.157 25.8614 244.155 25.8628C244.124 25.892 244.032 25.9389 243.94 25.928L244.176 23.942C243.606 23.8742 243.133 24.085 242.8 24.3921C242.497 24.6715 242.317 25.0185 242.208 25.2838C242.096 25.5604 242.029 25.8285 241.99 26.018C241.97 26.1152 241.957 26.1976 241.948 26.2579C241.944 26.2882 241.94 26.3132 241.938 26.3321C241.937 26.3415 241.936 26.3495 241.935 26.3558C241.935 26.3589 241.934 26.3617 241.934 26.364C241.934 26.3652 241.934 26.3663 241.934 26.3672C241.934 26.3677 241.934 26.3682 241.934 26.3686C241.934 26.3688 241.934 26.3691 241.934 26.3692C241.934 26.3695 241.934 26.3698 242.928 26.474ZM243.94 25.928C244.105 25.9476 244.271 26.0121 244.498 26.1593C244.76 26.3296 244.979 26.52 245.371 26.8194L246.585 25.2295C246.306 25.0168 245.933 24.7063 245.587 24.4817C245.205 24.2341 244.747 24.0098 244.176 23.942L243.94 25.928ZM245.371 26.8194C245.816 27.1586 246.138 27.416 246.371 27.6597C246.595 27.8948 246.671 28.0528 246.696 28.1703L248.65 27.7438C248.518 27.1377 248.184 26.6633 247.818 26.2799C247.461 25.9051 247.015 25.558 246.585 25.2295L245.371 26.8194ZM246.696 28.1703C246.722 28.2882 246.731 28.3674 246.732 28.4158C246.734 28.4674 246.724 28.4402 246.752 28.374C246.767 28.3374 246.792 28.2922 246.831 28.2469C246.871 28.201 246.915 28.1662 246.957 28.1421C247.038 28.0959 247.073 28.1093 246.997 28.111L247.04 30.1105C247.337 30.1042 247.658 30.0458 247.952 29.8771C248.263 29.6989 248.477 29.4355 248.599 29.1398C248.814 28.6224 248.721 28.0684 248.65 27.7438L246.696 28.1703ZM246.997 28.111C246.883 28.1134 246.553 28.0564 246.14 27.9554C245.958 27.9108 245.79 27.8656 245.668 27.8314C245.607 27.8144 245.557 27.8002 245.524 27.7905C245.507 27.7857 245.494 27.7819 245.486 27.7795C245.482 27.7783 245.479 27.7774 245.477 27.7768C245.476 27.7765 245.476 27.7764 245.475 27.7763C245.475 27.7762 245.475 27.7762 245.475 27.7762C245.475 27.7762 245.475 27.7762 245.475 27.7762C245.475 27.7762 245.475 27.7762 245.475 27.7762C245.475 27.7762 245.475 27.7763 245.188 28.7342C244.901 29.6921 244.901 29.6921 244.901 29.6921C244.901 29.6921 244.901 29.6921 244.901 29.6921C244.902 29.6922 244.902 29.6922 244.902 29.6923C244.902 29.6924 244.903 29.6925 244.903 29.6926C244.904 29.6929 244.905 29.6933 244.907 29.6937C244.91 29.6947 244.914 29.6959 244.92 29.6976C244.931 29.7008 244.946 29.7054 244.966 29.7111C245.005 29.7226 245.062 29.7387 245.13 29.7578C245.267 29.796 245.456 29.8471 245.665 29.8981C246.033 29.9882 246.619 30.1195 247.04 30.1105L246.997 28.111Z" fill="#06012F"/>
<path d="M243.989 24.7057C243.932 25.255 244.33 25.7469 244.88 25.8045C245.429 25.862 245.921 25.4634 245.978 24.9141L243.989 24.7057ZM246.114 23.2709L245.996 24.2639L246.114 23.2709ZM248.034 24.3604L247.427 25.1554L248.034 24.3604ZM249.729 26.293L250.706 26.0797L249.729 26.293ZM249.074 27.4467L249.096 28.4464L249.074 27.4467ZM247.531 26.1122C247.002 25.9536 246.445 26.254 246.286 26.783C246.128 27.312 246.428 27.8694 246.957 28.028L247.531 26.1122ZM244.984 24.8099C245.978 24.9141 245.978 24.9144 245.978 24.9146C245.978 24.9147 245.978 24.915 245.978 24.9151C245.978 24.9155 245.978 24.9158 245.978 24.916C245.978 24.9166 245.978 24.9171 245.978 24.9175C245.978 24.9182 245.978 24.9186 245.978 24.9186C245.978 24.9187 245.978 24.9174 245.978 24.9148C245.979 24.9095 245.98 24.8991 245.982 24.8844C245.987 24.8547 245.994 24.8089 246.006 24.7529C246.029 24.6361 246.066 24.4981 246.116 24.3757C246.17 24.2421 246.213 24.1973 246.211 24.1988C246.179 24.228 246.088 24.2749 245.996 24.2639L246.232 22.2779C245.661 22.2101 245.189 22.4209 244.856 22.728C244.553 23.0074 244.372 23.3544 244.264 23.6198C244.151 23.8963 244.084 24.1644 244.046 24.354C244.026 24.4512 244.013 24.5336 244.004 24.5939C243.999 24.6241 243.996 24.6491 243.994 24.668C243.992 24.6775 243.991 24.6854 243.991 24.6917C243.99 24.6949 243.99 24.6976 243.99 24.7C243.99 24.7011 243.99 24.7022 243.989 24.7032C243.989 24.7037 243.989 24.7041 243.989 24.7045C243.989 24.7047 243.989 24.7051 243.989 24.7052C243.989 24.7055 243.989 24.7057 244.984 24.8099ZM245.996 24.2639C246.161 24.2836 246.327 24.348 246.554 24.4952C246.816 24.6655 247.035 24.8559 247.427 25.1554L248.64 23.5654C248.362 23.3528 247.988 23.0422 247.643 22.8177C247.261 22.57 246.803 22.3458 246.232 22.2779L245.996 24.2639ZM247.427 25.1554C247.871 25.4946 248.194 25.752 248.426 25.9957C248.65 26.2307 248.726 26.3887 248.752 26.5062L250.706 26.0797C250.574 25.4736 250.24 24.9992 249.874 24.6158C249.517 24.241 249.071 23.8939 248.64 23.5654L247.427 25.1554ZM248.752 26.5062C248.778 26.6241 248.787 26.7034 248.788 26.7517C248.789 26.8033 248.78 26.7762 248.808 26.7099C248.823 26.6734 248.848 26.6282 248.887 26.5828C248.926 26.537 248.971 26.5021 249.013 26.4781C249.093 26.4318 249.129 26.4453 249.053 26.4469L249.096 28.4464C249.393 28.4401 249.713 28.3817 250.007 28.2131C250.318 28.0348 250.533 27.7714 250.655 27.4757C250.87 26.9584 250.777 26.4043 250.706 26.0797L248.752 26.5062ZM249.053 26.4469C248.938 26.4493 248.609 26.3923 248.196 26.2913C248.014 26.2468 247.846 26.2015 247.723 26.1673C247.662 26.1503 247.613 26.1362 247.58 26.1264C247.563 26.1216 247.55 26.1178 247.542 26.1154C247.538 26.1142 247.535 26.1133 247.533 26.1128C247.532 26.1125 247.531 26.1123 247.531 26.1122C247.531 26.1122 247.531 26.1121 247.531 26.1121C247.531 26.1121 247.531 26.1121 247.531 26.1121C247.531 26.1122 247.531 26.1122 247.531 26.1122C247.531 26.1122 247.531 26.1122 247.244 27.0701C246.957 28.028 246.957 28.028 246.957 28.028C246.957 28.028 246.957 28.0281 246.957 28.0281C246.957 28.0281 246.957 28.0282 246.958 28.0282C246.958 28.0283 246.958 28.0284 246.959 28.0286C246.96 28.0288 246.961 28.0292 246.962 28.0297C246.966 28.0306 246.97 28.0319 246.975 28.0335C246.986 28.0367 247.002 28.0413 247.022 28.047C247.061 28.0585 247.117 28.0746 247.186 28.0938C247.323 28.1319 247.512 28.183 247.721 28.234C248.089 28.3241 248.674 28.4554 249.096 28.4464L249.053 26.4469Z" fill="#06012F"/>
<path d="M246.13 23.278C246.072 23.8273 246.471 24.3192 247.02 24.3767C247.57 24.4343 248.061 24.0356 248.119 23.4863L246.13 23.278ZM248.254 21.8432L248.136 22.8362L248.136 22.8362L248.254 21.8432ZM250.174 22.9327L249.568 23.7276L250.174 22.9327ZM251.87 24.8653L252.847 24.652L251.87 24.8653ZM251.215 26.0189L251.236 27.0187L251.215 26.0189ZM249.83 24.7902C249.294 24.6576 248.751 24.9848 248.619 25.5209C248.486 26.0571 248.814 26.5992 249.35 26.7317L249.83 24.7902ZM247.124 23.3822C248.119 23.4863 248.119 23.4866 248.119 23.4869C248.119 23.487 248.119 23.4872 248.119 23.4874C248.119 23.4877 248.119 23.488 248.119 23.4883C248.119 23.4889 248.119 23.4893 248.119 23.4897C248.119 23.4905 248.118 23.4909 248.118 23.4909C248.118 23.491 248.119 23.4896 248.119 23.487C248.12 23.4817 248.121 23.4713 248.123 23.4566C248.127 23.427 248.135 23.3812 248.146 23.3252C248.17 23.2084 248.206 23.0704 248.256 22.948C248.311 22.8144 248.353 22.7696 248.352 22.771C248.32 22.8002 248.228 22.8471 248.136 22.8362L248.372 20.8502C247.802 20.7824 247.33 20.9932 246.996 21.3003C246.693 21.5797 246.513 21.9267 246.405 22.1921C246.292 22.4686 246.225 22.7367 246.186 22.9262C246.167 23.0234 246.153 23.1058 246.144 23.1661C246.14 23.1964 246.137 23.2214 246.134 23.2403C246.133 23.2497 246.132 23.2577 246.131 23.264C246.131 23.2671 246.131 23.2699 246.13 23.2722C246.13 23.2734 246.13 23.2745 246.13 23.2754C246.13 23.2759 246.13 23.2764 246.13 23.2768C246.13 23.277 246.13 23.2773 246.13 23.2774C246.13 23.2777 246.13 23.278 247.124 23.3822ZM248.136 22.8362C248.302 22.8558 248.467 22.9203 248.694 23.0675C248.957 23.2378 249.175 23.4282 249.568 23.7276L250.781 22.1377C250.502 21.925 250.129 21.6145 249.783 21.3899C249.402 21.1423 248.943 20.918 248.372 20.8502L248.136 22.8362ZM249.568 23.7276C250.012 24.0668 250.335 24.3242 250.567 24.5679C250.791 24.803 250.867 24.961 250.893 25.0785L252.847 24.652C252.714 24.0459 252.38 23.5715 252.015 23.1881C251.658 22.8133 251.211 22.4662 250.781 22.1377L249.568 23.7276ZM250.893 25.0785C250.918 25.1964 250.928 25.2756 250.929 25.324C250.93 25.3756 250.921 25.3484 250.948 25.2822C250.963 25.2456 250.988 25.2004 251.028 25.1551C251.067 25.1092 251.111 25.0744 251.153 25.0503C251.234 25.0041 251.269 25.0176 251.194 25.0192L251.236 27.0187C251.534 27.0124 251.854 26.954 252.148 26.7853C252.459 26.6071 252.673 26.3437 252.796 26.048C253.01 25.5306 252.918 24.9766 252.847 24.652L250.893 25.0785ZM251.194 25.0192C251.046 25.0223 250.737 24.9796 250.392 24.9126C250.235 24.8821 250.093 24.8511 249.99 24.8277C249.938 24.816 249.897 24.8063 249.869 24.7997C249.855 24.7964 249.845 24.7939 249.838 24.7923C249.835 24.7914 249.832 24.7909 249.831 24.7905C249.83 24.7903 249.83 24.7902 249.83 24.7902C249.829 24.7901 249.829 24.7901 249.829 24.7901C249.829 24.7901 249.829 24.7902 249.83 24.7902C249.83 24.7902 249.83 24.7902 249.83 24.7902C249.83 24.7902 249.83 24.7902 249.59 25.761C249.35 26.7317 249.35 26.7318 249.35 26.7318C249.35 26.7318 249.35 26.7318 249.35 26.7318C249.35 26.7318 249.35 26.7319 249.35 26.7319C249.351 26.732 249.351 26.7321 249.351 26.7322C249.352 26.7324 249.353 26.7327 249.355 26.733C249.357 26.7337 249.361 26.7346 249.366 26.7357C249.375 26.738 249.389 26.7413 249.406 26.7453C249.44 26.7534 249.488 26.7647 249.547 26.7781C249.665 26.8048 249.828 26.8404 250.011 26.8759C250.344 26.9406 250.848 27.027 251.236 27.0187L251.194 25.0192Z" fill="#06012F"/>
<path d="M245.896 65.6636C255.767 69.7426 257.661 72.1772 263.035 74.5871L249.469 86.1315C243.827 82.168 241.041 79.5237 237.669 73.0213C238.665 70.2625 241.712 68.0691 245.896 65.6636Z" fill="#E9E9F2" stroke="#06012F" stroke-width="2" stroke-linecap="round"/>
<g filter="url(#filter4_i_516_8007)">
<path d="M164.413 91.2228L165.906 85.5717L177.421 86.9578C169.349 80.2541 164.06 77.1168 153.111 72.7768C153.275 70.9424 153.351 69.868 153.111 66.9124L152.807 66.868C138.329 64.7536 130.118 63.5544 115.792 64.4601C116.401 60.5459 116.185 58.3333 115.805 54.4551L115.792 54.3307C110.879 52.8606 108.124 52.6616 103.211 54.3307C99.4481 63.6655 97.56 68.9229 96.3867 78.5345C122.768 86.8327 137.628 90.2305 164.413 91.2228Z" fill="#E9E9F2"/>
</g>
<path d="M164.413 91.2228L165.906 85.5717L177.421 86.9578C169.349 80.2541 164.06 77.1168 153.111 72.7768C153.275 70.9424 153.351 69.868 153.111 66.9124L152.807 66.868C138.329 64.7536 130.118 63.5544 115.792 64.4601C116.401 60.5459 116.185 58.3333 115.805 54.4551L115.792 54.3307C110.879 52.8606 108.124 52.6616 103.211 54.3307C99.4481 63.6655 97.56 68.9229 96.3867 78.5345C122.768 86.8327 137.628 90.2305 164.413 91.2228Z" stroke="#06012F" stroke-width="2" stroke-linejoin="round"/>
<path d="M122.083 85.0386C123.898 76.9382 125.217 72.4076 128.48 64.3535" stroke="#06012F" stroke-width="2" stroke-linejoin="round"/>
<path d="M122.616 64.2461C122.087 71.9322 120.937 76.2565 118.777 83.9716" stroke="#06012F" stroke-width="2" stroke-linejoin="round"/>
<path d="M117.072 64.4609C116.029 71.5287 114.776 75.441 111.954 82.3738" stroke="#06012F" stroke-width="2" stroke-linejoin="round"/>
<path d="M115.792 64.4609C111.047 70.8376 107.944 74.2145 101.931 80.0281" stroke="#06012F" stroke-width="2" stroke-linejoin="round"/>
<path d="M97.0264 74.0564C104.712 69.8395 108.902 67.263 116.005 62.0078" stroke="#06012F" stroke-width="2" stroke-linejoin="round"/>
<path d="M100.118 62.0082C106.324 62.2273 109.802 61.632 116.005 59.4492" stroke="#06012F" stroke-width="2" stroke-linejoin="round"/>
<path d="M153.111 72.7773C152.206 79.8108 151.314 83.5437 148.846 89.7306" stroke="#06012F" stroke-width="2" stroke-linejoin="round"/>
<path d="M150.445 66.6992C148.486 75.4801 147.067 80.3426 142.661 88.6638" stroke="#06012F" stroke-width="2" stroke-linejoin="round"/>
<path d="M143.835 65.6328C141.652 74.5028 141.336 79.475 140.529 88.3438" stroke="#06012F" stroke-width="2" stroke-linejoin="round"/>
<path d="M134.238 87.2767C136.762 78.6557 137.417 73.7638 137.97 64.9922" stroke="#06012F" stroke-width="2" stroke-linejoin="round"/>
<path d="M131.466 64.5664C129.94 72.8779 129.357 77.5781 128.587 85.9979" stroke="#06012F" stroke-width="2" stroke-linejoin="round"/>
<path d="M149.912 88.1302C151.868 82.8308 152.63 79.5997 153.431 73.416C153.781 78.3658 153.812 81.1426 152.684 86.1043L149.912 88.1302Z" fill="#8F90A7"/>
<path d="M251.467 72.31C282.463 74.17 278.988 84.4897 278.944 82.8712C250.122 90.5662 233.83 93.7137 203.648 93.8205C173.465 93.9273 220.47 70.4501 251.467 72.31Z" fill="#E9E9F2"/>
<path d="M278.944 82.8712L279.943 82.8438L279.909 81.5785L278.686 81.905L278.944 82.8712ZM251.467 72.31L251.407 73.3082L251.467 72.31ZM203.648 93.8205L203.651 94.8205L203.648 93.8205ZM277.944 82.8985C277.947 82.9884 277.956 83.1059 277.986 83.2297C278.002 83.2913 278.029 83.3828 278.081 83.4831C278.128 83.5723 278.235 83.7495 278.448 83.8845C278.705 84.0472 279.028 84.0909 279.33 83.9853C279.58 83.8976 279.728 83.7377 279.795 83.6552C279.928 83.4899 279.983 83.3183 280.006 83.242C280.107 82.9001 280.103 82.4453 280.009 81.9711C279.808 80.957 279.147 79.5716 277.502 78.1406C274.246 75.3083 267.088 72.2456 251.526 71.3118L251.407 73.3082C266.842 74.2344 273.444 77.2615 276.189 79.6495C277.544 80.8286 277.943 81.8359 278.047 82.3596C278.105 82.6543 278.065 82.7547 278.088 82.6747C278.091 82.6638 278.125 82.5394 278.236 82.4016C278.292 82.3328 278.429 82.1818 278.668 82.0979C278.958 81.9962 279.271 82.0386 279.518 82.1949C279.721 82.3235 279.819 82.4891 279.856 82.5612C279.899 82.6445 279.919 82.7137 279.927 82.7474C279.944 82.8154 279.944 82.855 279.943 82.8438L277.944 82.8985ZM251.526 71.3118C235.812 70.3689 216.141 75.8327 204.186 81.5044C201.19 82.9259 198.644 84.3764 196.75 85.7644C195.803 86.4584 195 87.1508 194.381 87.8316C193.77 88.5038 193.291 89.2167 193.07 89.9558C192.837 90.7318 192.893 91.5368 193.356 92.2567C193.792 92.9356 194.517 93.4221 195.388 93.7768C197.121 94.482 199.852 94.834 203.651 94.8205L203.644 92.8205C199.898 92.8338 197.496 92.4754 196.143 91.9244C195.471 91.6511 195.165 91.3729 195.038 91.1747C194.937 91.0174 194.895 90.8327 194.985 90.5302C195.087 90.1908 195.352 89.7366 195.861 89.1768C196.362 88.6257 197.054 88.0213 197.932 87.3776C199.689 86.0902 202.114 84.7015 205.044 83.3113C216.795 77.736 236.125 72.3913 251.407 73.3082L251.526 71.3118ZM203.651 94.8205C233.945 94.7133 250.326 91.5469 279.202 83.8373L278.686 81.905C249.919 89.5856 233.715 92.7141 203.644 92.8205L203.651 94.8205Z" fill="#06012F"/>
<path d="M293.346 51.9082C298.575 52.8566 301.746 56.4814 305.706 64.7489L292.158 69.0417C294.187 62.2234 290.97 58.3101 293.346 51.9082Z" fill="#06012F"/>
<path d="M275.045 74.3148L274.233 74.8982L274.653 75.4822L275.34 75.2705L275.045 74.3148ZM272.787 64.0007L273.688 64.4348L272.787 64.0007ZM279.289 59.8007C279.784 59.5575 279.989 58.9584 279.746 58.4626C279.503 57.9667 278.904 57.7618 278.408 58.005L279.289 59.8007ZM305.706 64.7489L306.008 65.7022L307.105 65.3546L306.608 64.3169L305.706 64.7489ZM293.346 51.9082L293.525 50.9243L292.701 50.7747L292.409 51.5602L293.346 51.9082ZM292.158 69.0417L292.453 69.9974L292.46 69.995L292.158 69.0417ZM275.045 74.3148C275.858 73.7315 275.858 73.7317 275.858 73.7319C275.858 73.7319 275.858 73.732 275.858 73.7321C275.858 73.7322 275.858 73.7322 275.858 73.7322C275.858 73.7321 275.858 73.7316 275.857 73.7307C275.856 73.729 275.854 73.7259 275.851 73.7214C275.844 73.7124 275.834 73.6979 275.82 73.678C275.793 73.6382 275.751 73.5772 275.698 73.4967C275.592 73.3358 275.44 73.0979 275.263 72.798C274.907 72.1962 274.456 71.3552 274.068 70.3931C273.269 68.4094 272.847 66.1808 273.688 64.4348L271.887 63.5665C270.66 66.1116 271.367 69.0402 272.213 71.1407C272.649 72.2208 273.15 73.1537 273.541 73.8154C273.737 74.1472 273.907 74.4134 274.029 74.5986C274.09 74.6912 274.139 74.7637 274.174 74.8143C274.192 74.8396 274.206 74.8593 274.216 74.8734C274.221 74.8804 274.225 74.886 274.227 74.8902C274.229 74.8922 274.23 74.8939 274.231 74.8953C274.232 74.896 274.232 74.8965 274.232 74.897C274.233 74.8973 274.233 74.8975 274.233 74.8977C274.233 74.8979 274.233 74.8982 275.045 74.3148ZM273.688 64.4348C274.237 63.2966 275.556 62.1472 276.887 61.232C277.53 60.7899 278.135 60.4295 278.58 60.1797C278.802 60.0551 278.982 59.9587 279.105 59.8943C279.167 59.862 279.215 59.8378 279.246 59.8221C279.261 59.8142 279.273 59.8084 279.28 59.8049C279.284 59.8031 279.286 59.8018 279.288 59.8011C279.288 59.8008 279.289 59.8006 279.289 59.8005C279.289 59.8005 279.289 59.8005 279.289 59.8005C279.289 59.8005 279.289 59.8006 279.289 59.8006C279.289 59.8006 279.289 59.8007 278.848 58.9029C278.408 58.005 278.408 58.0051 278.408 58.0052C278.407 58.0052 278.407 58.0053 278.407 58.0054C278.407 58.0056 278.406 58.0058 278.406 58.0061C278.405 58.0066 278.403 58.0072 278.402 58.008C278.399 58.0095 278.394 58.0116 278.389 58.0143C278.378 58.0197 278.363 58.0272 278.344 58.037C278.305 58.0565 278.25 58.0847 278.18 58.1212C278.04 58.1942 277.842 58.3004 277.6 58.4362C277.118 58.7073 276.459 59.0995 275.754 59.5839C274.39 60.5218 272.68 61.9212 271.887 63.5665L273.688 64.4348ZM306.608 64.3169C302.631 56.0139 299.27 51.9664 293.525 50.9243L293.168 52.8921C297.88 53.7469 300.861 56.9488 304.804 65.1809L306.608 64.3169ZM275.34 75.2705L292.453 69.9974L291.864 68.0861L274.751 73.3592L275.34 75.2705ZM292.46 69.995L306.008 65.7022L305.404 63.7956L291.856 68.0884L292.46 69.995ZM292.409 51.5602C291.136 54.9898 291.371 57.7665 291.626 60.4147C291.88 63.0513 292.152 65.555 291.2 68.7566L293.117 69.3269C294.193 65.71 293.87 62.848 293.617 60.2228C293.365 57.6094 293.18 55.2285 294.284 52.2562L292.409 51.5602Z" fill="#06012F"/>
<path d="M279.233 61.251C279.499 61.7352 280.106 61.9123 280.591 61.6467C281.075 61.381 281.252 60.7732 280.986 60.289L279.233 61.251ZM305.059 64.7114C305.288 65.2142 305.88 65.4366 306.383 65.2081C306.886 64.9797 307.108 64.3869 306.88 63.884L305.059 64.7114ZM280.986 60.289L279.153 56.9481L277.4 57.9101L279.233 61.251L280.986 60.289ZM279.612 55.5886C286.42 52.7353 291.291 51.9405 295.138 53.2721C298.957 54.5941 302.064 58.1202 305.059 64.7114L306.88 63.884C303.816 57.1403 300.404 52.9783 295.792 51.3821C291.209 49.7956 285.738 50.8526 278.839 53.7441L279.612 55.5886ZM279.153 56.9481C278.871 56.434 279.097 55.8046 279.612 55.5886L278.839 53.7441C277.203 54.4298 276.56 56.3794 277.4 57.9101L279.153 56.9481Z" fill="#06012F"/>
<path d="M276.059 62.3462C274.029 65.3638 275.204 65.9899 278.56 66.6674" stroke="#06012F" stroke-width="2" stroke-linecap="round"/>
<path d="M286.726 57.1797C288.462 59.4434 288.972 60.7126 288.259 62.979" stroke="#06012F" stroke-width="2" stroke-linecap="round"/>
<path d="M66.6133 62.9785C165.039 154.001 218.046 147.637 309.923 62.9785C215.345 95.2343 162.073 95.5737 66.6133 62.9785Z" fill="#E9E9F2"/>
<path d="M66.6133 62.9785L66.9364 62.0322C66.4893 61.8795 65.9964 62.0606 65.7544 62.4664C65.5124 62.8722 65.5875 63.3919 65.9343 63.7127L66.6133 62.9785ZM309.923 62.9785L310.6 63.7139C310.948 63.3936 311.024 62.8736 310.782 62.4673C310.54 62.061 310.047 61.8795 309.6 62.032L309.923 62.9785ZM65.9343 63.7127C115.177 109.252 153.29 130.663 190.745 129.859C228.186 129.054 264.65 106.055 310.6 63.7139L309.245 62.2431C263.319 104.561 227.341 127.072 190.702 127.859C154.079 128.646 116.475 107.727 67.2922 62.2443L65.9343 63.7127ZM309.6 62.032C262.361 78.1428 225.516 86.2554 188.598 86.2976C151.68 86.3399 114.614 78.3119 66.9364 62.0322L66.2901 63.9249C114.072 80.2403 151.373 88.3402 188.6 88.2976C225.827 88.255 262.906 80.07 310.245 63.925L309.6 62.032Z" fill="#06012F"/>
<g filter="url(#filter5_i_516_8007)">
<path d="M134.132 135.359C144.155 80.9807 162.692 67.5541 193.735 87.1649C172.155 90.9974 151.618 109.663 144.155 137.065L134.132 135.359Z" fill="#E9E9F2"/>
</g>
<path d="M193.735 87.1649L193.91 88.1495C194.316 88.0773 194.637 87.7627 194.716 87.3575C194.796 86.9524 194.618 86.54 194.269 86.3195L193.735 87.1649ZM134.132 135.359L133.148 135.178C133.1 135.441 133.159 135.713 133.312 135.932C133.465 136.151 133.7 136.3 133.964 136.345L134.132 135.359ZM144.155 137.065L143.987 138.051C144.494 138.137 144.984 137.825 145.119 137.328L144.155 137.065ZM194.269 86.3195C186.44 81.3734 179.31 78.4517 172.838 77.7803C166.33 77.1051 160.528 78.7123 155.432 82.7308C150.366 86.7256 146.055 93.0571 142.387 101.741C138.716 110.431 135.661 121.543 133.148 135.178L135.115 135.54C137.614 121.986 140.635 111.028 144.229 102.519C147.826 94.0045 151.968 88.0091 156.67 84.3013C161.342 80.6171 166.621 79.1461 172.632 79.7696C178.68 80.397 185.509 83.151 193.201 88.0103L194.269 86.3195ZM133.964 136.345L143.987 138.051L144.322 136.079L134.3 134.373L133.964 136.345ZM145.119 137.328C152.496 110.246 172.762 91.9052 193.91 88.1495L193.56 86.1803C171.549 90.0895 150.741 109.08 143.19 136.802L145.119 137.328Z" fill="#06012F"/>
<path d="M251.878 80.063C252.195 80.5154 252.819 80.6255 253.271 80.3088C253.724 79.9921 253.834 79.3685 253.517 78.9161L251.878 80.063ZM264.881 75.9671C265.429 76.0333 265.928 75.6425 265.994 75.0942C266.06 74.5459 265.669 74.0478 265.121 73.9815L264.881 75.9671ZM251.009 76.3537L250.109 76.7892L251.009 76.3537ZM250.109 76.7892C250.666 77.9403 251.263 79.1833 251.878 80.063L253.517 78.9161C253.014 78.1979 252.493 77.1246 251.909 75.9181L250.109 76.7892ZM251.893 75.9202C256.441 75.1322 259.506 75.3179 264.881 75.9671L265.121 73.9815C259.675 73.3237 256.383 73.1124 251.551 73.9496L251.893 75.9202ZM251.909 75.9181C251.908 75.9165 251.908 75.9155 251.908 75.915C251.907 75.9144 251.907 75.9142 251.907 75.9141C251.907 75.9141 251.907 75.9141 251.907 75.9142C251.907 75.9143 251.907 75.9143 251.907 75.9143C251.907 75.9139 251.908 75.9123 251.908 75.9105C251.909 75.9088 251.909 75.9107 251.904 75.9141C251.902 75.9159 251.899 75.9176 251.896 75.9189C251.893 75.9202 251.892 75.9204 251.893 75.9202L251.551 73.9496C250.222 74.1799 249.542 75.6192 250.109 76.7892L251.909 75.9181Z" fill="#06012F"/>
<path d="M198.457 85.6651C218.099 85.5363 234.159 83.7525 251.261 78.3164L252.698 79.9158C246.992 81.6381 242.5 87.1186 234.171 90.6413C223.447 93.6942 217.403 93.5006 207.447 91.7932C200.834 90.639 199.061 90.982 195.996 92.6692C195.996 92.6692 191.661 107.071 187.981 105.731C184.983 104.639 186.599 92.6692 186.599 92.6692C187.27 88.4208 190.626 86.354 198.457 85.6651Z" fill="#8F90A7"/>
<g filter="url(#filter6_i_516_8007)">
<path d="M196.881 84.325C217.104 84.1959 233.639 82.4064 251.248 76.9531L252.746 79.4872C246.871 81.215 241.971 85.1683 233.395 88.7021C222.354 91.7647 216.462 91.682 206.211 89.9692C199.402 88.8113 197.502 89.6588 194.347 91.3514C194.347 91.3514 191.685 105.942 187.896 104.598C184.81 103.503 184.671 91.3514 184.671 91.3514C185.362 87.0895 188.818 85.0162 196.881 84.325Z" fill="white"/>
</g>
<path d="M251.248 76.9531L252.109 76.4444L251.707 75.7641L250.953 75.9979L251.248 76.9531ZM196.881 84.325L196.874 83.3251L196.835 83.3253L196.795 83.3287L196.881 84.325ZM184.671 91.3514L183.684 91.1913L183.67 91.2765L183.671 91.3628L184.671 91.3514ZM187.896 104.598L187.562 105.54H187.562L187.896 104.598ZM194.347 91.3514L193.874 90.4702L193.449 90.6979L193.363 91.172L194.347 91.3514ZM206.211 89.9692L206.043 90.955L206.046 90.9555L206.211 89.9692ZM233.395 88.7021L233.662 89.6657L233.72 89.6496L233.776 89.6267L233.395 88.7021ZM252.746 79.4872L253.028 80.4466L254.26 80.0842L253.607 78.9785L252.746 79.4872ZM250.953 75.9979C233.467 81.413 217.036 83.1963 196.874 83.3251L196.887 85.325C217.172 85.1955 233.812 83.3998 251.544 77.9084L250.953 75.9979ZM196.795 83.3287C192.721 83.6779 189.662 84.384 187.509 85.6345C185.285 86.9264 184.076 88.7727 183.684 91.1913L185.658 91.5115C185.957 89.6682 186.821 88.3469 188.514 87.3639C190.277 86.3394 192.977 85.6633 196.966 85.3214L196.795 83.3287ZM184.671 91.3514C183.671 91.3628 183.671 91.363 183.671 91.3632C183.671 91.3634 183.671 91.3636 183.671 91.3639C183.671 91.3644 183.671 91.3651 183.671 91.3661C183.671 91.3679 183.671 91.3704 183.671 91.3737C183.671 91.3802 183.671 91.3896 183.672 91.4018C183.672 91.4262 183.672 91.4619 183.673 91.508C183.675 91.6002 183.678 91.7345 183.683 91.905C183.693 92.2461 183.711 92.733 183.742 93.32C183.804 94.4921 183.92 96.0732 184.135 97.6952C184.348 99.3073 184.666 101.006 185.145 102.393C185.385 103.086 185.678 103.741 186.046 104.279C186.41 104.811 186.902 105.306 187.562 105.54L188.231 103.655C188.119 103.616 187.931 103.491 187.697 103.149C187.466 102.813 187.243 102.34 187.035 101.739C186.621 100.54 186.324 98.9952 186.118 97.4326C185.912 95.8799 185.8 94.3548 185.739 93.2143C185.709 92.645 185.692 92.174 185.682 91.8463C185.678 91.6825 185.675 91.5546 185.673 91.4683C185.672 91.4252 185.672 91.3924 185.671 91.3708C185.671 91.36 185.671 91.3519 185.671 91.3468C185.671 91.3442 185.671 91.3423 185.671 91.3412C185.671 91.3406 185.671 91.3402 185.671 91.34C185.671 91.3399 185.671 91.3399 185.671 91.3399C185.671 91.3399 185.671 91.34 184.671 91.3514ZM187.562 105.54C188.371 105.827 189.143 105.665 189.789 105.264C190.398 104.886 190.908 104.293 191.336 103.648C192.195 102.354 192.916 100.551 193.493 98.7899C194.075 97.0107 194.534 95.1969 194.846 93.8337C195.003 93.1506 195.123 92.5774 195.205 92.174C195.246 91.9723 195.277 91.8128 195.298 91.7032C195.308 91.6483 195.316 91.6059 195.322 91.5769C195.324 91.5624 195.327 91.5512 195.328 91.5435C195.329 91.5397 195.329 91.5367 195.33 91.5346C195.33 91.5335 195.33 91.5327 195.33 91.532C195.33 91.5317 195.33 91.5314 195.33 91.5313C195.33 91.531 195.33 91.5309 194.347 91.3514C193.363 91.172 193.363 91.1719 193.363 91.1719C193.363 91.1719 193.363 91.172 193.363 91.1721C193.363 91.1724 193.363 91.1729 193.362 91.1736C193.362 91.175 193.362 91.1773 193.361 91.1804C193.36 91.1867 193.358 91.1965 193.356 91.2095C193.351 91.2356 193.344 91.275 193.334 91.3267C193.314 91.4301 193.284 91.5829 193.245 91.7775C193.166 92.1668 193.049 92.723 192.897 93.3868C192.592 94.7174 192.148 96.4673 191.592 98.1677C191.029 99.8863 190.375 101.479 189.669 102.542C189.315 103.077 188.995 103.403 188.734 103.565C188.509 103.705 188.368 103.704 188.231 103.655L187.562 105.54ZM194.819 92.2326C196.39 91.3904 197.526 90.8283 199.069 90.5785C200.629 90.3256 202.68 90.3832 206.043 90.955L206.378 88.9833C202.932 88.3973 200.629 88.2997 198.749 88.6042C196.85 88.9118 195.459 89.6198 193.874 90.4702L194.819 92.2326ZM206.046 90.9555C211.196 91.8161 215.309 92.2774 219.542 92.1258C223.78 91.9741 228.094 91.2102 233.662 89.6657L233.127 87.7385C227.654 89.2566 223.502 89.9827 219.471 90.1271C215.435 90.2716 211.476 89.8351 206.376 88.9828L206.046 90.9555ZM233.776 89.6267C238.121 87.836 241.537 85.9379 244.56 84.2962C247.6 82.6457 250.207 81.2764 253.028 80.4466L252.464 78.5279C249.411 79.4258 246.629 80.8971 243.606 82.5386C240.567 84.1889 237.244 86.0343 233.014 87.7775L233.776 89.6267ZM250.388 77.4619L251.885 79.996L253.607 78.9785L252.109 76.4444L250.388 77.4619Z" fill="#06012F"/>
<path d="M191.121 95.1523C190.085 98.4927 189.555 101.18 189.278 104.367" stroke="#06012F" stroke-width="2" stroke-linecap="round"/>
<path d="M188.818 94C188.34 98.0012 187.832 100.392 188.242 104.482" stroke="#06012F" stroke-width="2" stroke-linecap="round"/>
<path d="M186.629 93.1953C185.938 96.5357 186.38 100.706 186.859 103.677" stroke="#06012F" stroke-width="2" stroke-linecap="round"/>
<path d="M143.088 144.243L144.048 137.099L134.345 135.286C112.476 134.724 109.539 136.085 110.674 139.658L143.088 144.243Z" fill="#E9E9F2" stroke="#06012F" stroke-width="2" stroke-linecap="round"/>
<path d="M110.636 139.94V139.688L143.059 144.186C142.944 145.316 141.909 146.144 140.785 145.983L112.353 141.92C111.368 141.78 110.636 140.936 110.636 139.94Z" fill="#E9E9F2"/>
<path d="M110.636 139.688L110.773 138.697L109.636 138.539V139.688H110.636ZM112.353 141.92L112.211 142.91H112.211L112.353 141.92ZM140.785 145.983L140.643 146.973L140.785 145.983ZM143.059 144.186L144.054 144.287L144.152 143.328L143.197 143.195L143.059 144.186ZM109.636 139.688V139.94H111.636V139.688H109.636ZM112.211 142.91L140.643 146.973L140.926 144.993L112.494 140.93L112.211 142.91ZM143.197 143.195L110.773 138.697L110.498 140.678L142.922 145.176L143.197 143.195ZM140.643 146.973C142.344 147.216 143.883 145.969 144.054 144.287L142.065 144.084C142.006 144.663 141.475 145.072 140.926 144.993L140.643 146.973ZM109.636 139.94C109.636 141.433 110.733 142.699 112.211 142.91L112.494 140.93C112.002 140.86 111.636 140.438 111.636 139.94H109.636Z" fill="#06012F"/>
<path d="M129.352 137.2C127.985 134.985 127.109 133.91 124.105 134.198M123.266 137.843C121.847 134.872 120.791 134.203 118.544 134.413" stroke="#06012F" stroke-width="2" stroke-linecap="round"/>
<path d="M385.447 16.4525L381.624 25.547C353.155 50.8533 337.734 54.1483 310.484 63.6793L308.737 62.0566C345.905 48.7445 363.304 41.6271 385.447 16.4525Z" fill="#E9E9F2" stroke="#06012F" stroke-width="2"/>
<path d="M-9.32785 16.3357L-5.50617 25.4303C22.9617 50.7385 38.3823 54.0348 65.6309 63.5679L67.3782 61.9454C30.2109 48.6304 12.8135 41.5116 -9.32785 16.3357Z" fill="#E9E9F2" stroke="#06012F" stroke-width="2"/>
<g filter="url(#filter7_i_516_8007)">
<ellipse cx="67.2728" cy="62.848" rx="2.76787" ry="2.76788" fill="#E9E9F2"/>
</g>
<path d="M69.0406 62.848C69.0406 63.8243 68.2491 64.6158 67.2728 64.6158C66.2964 64.6158 65.5049 63.8243 65.5049 62.848C65.5049 61.8716 66.2964 61.0801 67.2728 61.0801C68.2491 61.0801 69.0406 61.8716 69.0406 62.848Z" stroke="#06012F" stroke-width="2"/>
<g filter="url(#filter8_i_516_8007)">
<ellipse cx="309.264" cy="63.3733" rx="2.76787" ry="2.76788" fill="#E9E9F2"/>
</g>
<path d="M311.032 63.3733C311.032 64.3497 310.24 65.1412 309.264 65.1412C308.288 65.1412 307.496 64.3497 307.496 63.3733C307.496 62.397 308.288 61.6055 309.264 61.6055C310.24 61.6055 311.032 62.397 311.032 63.3733Z" stroke="#06012F" stroke-width="2"/>
</g>
<defs>
<filter id="filter0_i_516_8007" x="222.44" y="29.2109" width="29.7686" height="43.7754" filterUnits="userSpaceOnUse" color-interpolation-filters="sRGB">
<feFlood flood-opacity="0" result="BackgroundImageFix"/>
<feBlend mode="normal" in="SourceGraphic" in2="BackgroundImageFix" result="shape"/>
<feColorMatrix in="SourceAlpha" type="matrix" values="0 0 0 0 0 0 0 0 0 0 0 0 0 0 0 0 0 0 127 0" result="hardAlpha"/>
<feOffset dx="10"/>
<feComposite in2="hardAlpha" operator="arithmetic" k2="-1" k3="1"/>
<feColorMatrix type="matrix" values="0 0 0 0 0.913725 0 0 0 0 0.913725 0 0 0 0 0.94902 0 0 0 1 0"/>
<feBlend mode="normal" in2="shape" result="effect1_innerShadow_516_8007"/>
</filter>
<filter id="filter1_i_516_8007" x="244.173" y="16.834" width="17.4355" height="16.6836" filterUnits="userSpaceOnUse" color-interpolation-filters="sRGB">
<feFlood flood-opacity="0" result="BackgroundImageFix"/>
<feBlend mode="normal" in="SourceGraphic" in2="BackgroundImageFix" result="shape"/>
<feColorMatrix in="SourceAlpha" type="matrix" values="0 0 0 0 0 0 0 0 0 0 0 0 0 0 0 0 0 0 127 0" result="hardAlpha"/>
<feOffset dx="10"/>
<feComposite in2="hardAlpha" operator="arithmetic" k2="-1" k3="1"/>
<feColorMatrix type="matrix" values="0 0 0 0 0.807843 0 0 0 0 0.807843 0 0 0 0 0.85098 0 0 0 1 0"/>
<feBlend mode="normal" in2="shape" result="effect1_innerShadow_516_8007"/>
</filter>
<filter id="filter2_i_516_8007" x="239.873" y="22.1797" width="12.335" height="8.35938" filterUnits="userSpaceOnUse" color-interpolation-filters="sRGB">
<feFlood flood-opacity="0" result="BackgroundImageFix"/>
<feBlend mode="normal" in="SourceGraphic" in2="BackgroundImageFix" result="shape"/>
<feColorMatrix in="SourceAlpha" type="matrix" values="0 0 0 0 0 0 0 0 0 0 0 0 0 0 0 0 0 0 127 0" result="hardAlpha"/>
<feOffset dx="10"/>
<feComposite in2="hardAlpha" operator="arithmetic" k2="-1" k3="1"/>
<feColorMatrix type="matrix" values="0 0 0 0 0.913725 0 0 0 0 0.913725 0 0 0 0 0.94902 0 0 0 1 0"/>
<feBlend mode="normal" in2="shape" result="effect1_innerShadow_516_8007"/>
</filter>
<filter id="filter3_i_516_8007" x="248.877" y="28.8535" width="4.28223" height="5.23438" filterUnits="userSpaceOnUse" color-interpolation-filters="sRGB">
<feFlood flood-opacity="0" result="BackgroundImageFix"/>
<feBlend mode="normal" in="SourceGraphic" in2="BackgroundImageFix" result="shape"/>
<feColorMatrix in="SourceAlpha" type="matrix" values="0 0 0 0 0 0 0 0 0 0 0 0 0 0 0 0 0 0 127 0" result="hardAlpha"/>
<feOffset dx="7"/>
<feComposite in2="hardAlpha" operator="arithmetic" k2="-1" k3="1"/>
<feColorMatrix type="matrix" values="0 0 0 0 0.913725 0 0 0 0 0.913725 0 0 0 0 0.94902 0 0 0 1 0"/>
<feBlend mode="normal" in2="shape" result="effect1_innerShadow_516_8007"/>
</filter>
<filter id="filter4_i_516_8007" x="95.3867" y="52.1523" width="83.0342" height="40.0703" filterUnits="userSpaceOnUse" color-interpolation-filters="sRGB">
<feFlood flood-opacity="0" result="BackgroundImageFix"/>
<feBlend mode="normal" in="SourceGraphic" in2="BackgroundImageFix" result="shape"/>
<feColorMatrix in="SourceAlpha" type="matrix" values="0 0 0 0 0 0 0 0 0 0 0 0 0 0 0 0 0 0 127 0" result="hardAlpha"/>
<feOffset dx="20"/>
<feComposite in2="hardAlpha" operator="arithmetic" k2="-1" k3="1"/>
<feColorMatrix type="matrix" values="0 0 0 0 0.807843 0 0 0 0 0.807843 0 0 0 0 0.85098 0 0 0 1 0"/>
<feBlend mode="normal" in2="shape" result="effect1_innerShadow_516_8007"/>
</filter>
<filter id="filter5_i_516_8007" x="134.132" y="78.6309" width="59.6025" height="58.4336" filterUnits="userSpaceOnUse" color-interpolation-filters="sRGB">
<feFlood flood-opacity="0" result="BackgroundImageFix"/>
<feBlend mode="normal" in="SourceGraphic" in2="BackgroundImageFix" result="shape"/>
<feColorMatrix in="SourceAlpha" type="matrix" values="0 0 0 0 0 0 0 0 0 0 0 0 0 0 0 0 0 0 127 0" result="hardAlpha"/>
<feOffset dx="5"/>
<feComposite in2="hardAlpha" operator="arithmetic" k2="-1" k3="1"/>
<feColorMatrix type="matrix" values="0 0 0 0 0.807843 0 0 0 0 0.807843 0 0 0 0 0.85098 0 0 0 1 0"/>
<feBlend mode="normal" in2="shape" result="effect1_innerShadow_516_8007"/>
</filter>
<filter id="filter6_i_516_8007" x="183.67" y="75.7637" width="70.5898" height="29.9219" filterUnits="userSpaceOnUse" color-interpolation-filters="sRGB">
<feFlood flood-opacity="0" result="BackgroundImageFix"/>
<feBlend mode="normal" in="SourceGraphic" in2="BackgroundImageFix" result="shape"/>
<feColorMatrix in="SourceAlpha" type="matrix" values="0 0 0 0 0 0 0 0 0 0 0 0 0 0 0 0 0 0 127 0" result="hardAlpha"/>
<feOffset dx="20"/>
<feComposite in2="hardAlpha" operator="arithmetic" k2="-1" k3="1"/>
<feColorMatrix type="matrix" values="0 0 0 0 0.913725 0 0 0 0 0.913725 0 0 0 0 0.94902 0 0 0 1 0"/>
<feBlend mode="normal" in2="shape" result="effect1_innerShadow_516_8007"/>
</filter>
<filter id="filter7_i_516_8007" x="64.5049" y="60.0801" width="5.53613" height="5.53516" filterUnits="userSpaceOnUse" color-interpolation-filters="sRGB">
<feFlood flood-opacity="0" result="BackgroundImageFix"/>
<feBlend mode="normal" in="SourceGraphic" in2="BackgroundImageFix" result="shape"/>
<feColorMatrix in="SourceAlpha" type="matrix" values="0 0 0 0 0 0 0 0 0 0 0 0 0 0 0 0 0 0 127 0" result="hardAlpha"/>
<feOffset dx="10"/>
<feComposite in2="hardAlpha" operator="arithmetic" k2="-1" k3="1"/>
<feColorMatrix type="matrix" values="0 0 0 0 0.807843 0 0 0 0 0.807843 0 0 0 0 0.85098 0 0 0 1 0"/>
<feBlend mode="normal" in2="shape" result="effect1_innerShadow_516_8007"/>
</filter>
<filter id="filter8_i_516_8007" x="306.496" y="60.6055" width="5.53613" height="5.53516" filterUnits="userSpaceOnUse" color-interpolation-filters="sRGB">
<feFlood flood-opacity="0" result="BackgroundImageFix"/>
<feBlend mode="normal" in="SourceGraphic" in2="BackgroundImageFix" result="shape"/>
<feColorMatrix in="SourceAlpha" type="matrix" values="0 0 0 0 0 0 0 0 0 0 0 0 0 0 0 0 0 0 127 0" result="hardAlpha"/>
<feOffset dx="10"/>
<feComposite in2="hardAlpha" operator="arithmetic" k2="-1" k3="1"/>
<feColorMatrix type="matrix" values="0 0 0 0 0.807843 0 0 0 0 0.807843 0 0 0 0 0.85098 0 0 0 1 0"/>
<feBlend mode="normal" in2="shape" result="effect1_innerShadow_516_8007"/>
</filter>
</defs>
</svg>
