<svg width="130" height="110" viewBox="0 0 130 110" fill="none" xmlns="http://www.w3.org/2000/svg">
<path fill-rule="evenodd" clip-rule="evenodd" d="M24.4163 107.252C12.0685 107.252 2.05859 97.477 2.05859 85.4191C2.05859 73.3611 12.0685 63.5862 24.4163 63.5862C24.9414 63.5862 25.4622 63.6038 25.9783 63.6386C25.6197 61.6443 25.4326 59.5906 25.4326 57.4932C25.4326 38.4248 40.9024 22.9668 59.9854 22.9668C75.2202 22.9668 88.1522 32.819 92.7482 46.495C93.8372 46.3813 94.943 46.3229 96.0627 46.3229C113.181 46.3229 127.059 59.9624 127.059 76.7874C127.059 92.7718 114.533 105.96 98.6033 107.23V107.252H41.1926H24.4163ZM36.6073 107.252H29.5295H36.6073Z" fill="#C8C8FE"/>
<path d="M36.6073 107.252H29.5295M24.4163 107.252C12.0685 107.252 2.05859 97.477 2.05859 85.4191C2.05859 73.3611 12.0685 63.5862 24.4163 63.5862C24.9414 63.5862 25.4622 63.6038 25.9783 63.6386C25.6197 61.6443 25.4326 59.5906 25.4326 57.4932C25.4326 38.4248 40.9024 22.9668 59.9854 22.9668C75.2202 22.9668 88.1522 32.819 92.7482 46.495C93.8372 46.3813 94.943 46.3229 96.0627 46.3229C113.181 46.3229 127.059 59.9624 127.059 76.7874C127.059 92.7718 114.533 105.96 98.6033 107.23V107.252H41.1925H24.4163Z" stroke="black" stroke-width="4" stroke-linecap="round"/>
<path d="M60.4937 93.0317C63.5807 93.0317 66.0832 90.5311 66.0832 87.4465C66.0832 84.3619 63.5807 81.8613 60.4937 81.8613C57.4068 81.8613 54.9043 84.3619 54.9043 87.4465C54.9043 90.5311 57.4068 93.0317 60.4937 93.0317Z" fill="white" stroke="black" stroke-width="4"/>
<path d="M44.7412 75.7713L51.855 70.193L44.7412 64.8828" stroke="black" stroke-width="4" stroke-linecap="round" stroke-linejoin="round"/>
<path d="M76.2461 75.7713L69.1323 70.193L76.2461 64.8828" stroke="black" stroke-width="4" stroke-linecap="round" stroke-linejoin="round"/>
<path d="M70.1478 33.1191C76.7625 34.8684 81.9854 40.0375 83.8066 46.6182" stroke="black" stroke-width="4" stroke-linecap="round"/>
<path fill-rule="evenodd" clip-rule="evenodd" d="M107.996 23.7324L99.5022 32.2201L107.996 23.7324ZM99.373 23.7324L107.867 32.2201L99.373 23.7324Z" fill="#C4C4C4"/>
<path d="M99.373 23.7324L107.867 32.2201M107.996 23.7324L99.5022 32.2201L107.996 23.7324Z" stroke="#FCD770" stroke-width="4" stroke-linecap="round" stroke-linejoin="round"/>
<path d="M30.5908 2.63086L42.3014 14.5195M42.4794 2.63086L30.7688 14.5195L42.4794 2.63086Z" stroke="#FCD770" stroke-width="4" stroke-linecap="round" stroke-linejoin="round"/>
<path d="M3.48438 41.8496L9.58193 47.9425M9.58193 41.8496L3.48438 47.9425L9.58193 41.8496Z" stroke="#FCD770" stroke-width="4" stroke-linecap="round" stroke-linejoin="round"/>
</svg>
