<svg width="32" height="32" viewBox="0 0 32 32" fill="none" xmlns="http://www.w3.org/2000/svg">
<path d="M13.5164 27.9999H19.8431C21.6209 27.9999 23.0849 26.5358 23.0849 24.7581V18.4314H20C20.3137 17.9608 20.4706 17.3856 20.3137 16.7582C20.1568 16.0785 19.5817 15.5033 18.902 15.3465C17.5425 14.9804 16.3399 15.9739 16.3399 17.2811C16.3399 17.6994 16.4968 18.1177 16.7059 18.4314H13.621" fill="#C9C7FE"/>
<path d="M4 18.4316V24.7583C4 26.5361 5.46403 28.0001 7.24178 28.0001H13.5685V24.9152C14.0391 25.2289 14.6142 25.3857 15.2417 25.2289C15.9214 25.072 16.4966 24.4969 16.6534 23.8171C17.0194 22.4577 15.9737 21.2551 14.7188 21.2551C14.3005 21.2551 13.8822 21.4119 13.5685 21.6211V18.5362" fill="#4C45FB"/>
<path d="M11.843 11.7386C12.4705 11.5817 13.0979 11.7386 13.5162 12.0523V8.91511H7.24178C5.46403 8.91511 4 10.3791 4 12.1569V18.4836H7.08492C6.7712 18.9542 6.61434 19.5293 6.7712 20.1568C6.92806 20.8365 7.50322 21.4117 8.18295 21.5685C9.5424 21.9345 10.745 20.8888 10.745 19.6339C10.745 19.2156 10.5881 18.7973 10.379 18.4836H13.4639V15.3987C13.1502 15.6078 12.7319 15.7647 12.3136 15.7647C11.0064 15.7647 10.013 14.5621 10.379 13.2026C10.5881 12.4706 11.1633 11.8955 11.843 11.7386Z" fill="#C9C7FE"/>
<path d="M25.3329 5.30719L19.1631 4.00002L18.5356 7.03266C18.1173 6.61437 17.5945 6.35293 16.9148 6.40522C16.235 6.4575 15.5553 6.8758 15.2416 7.50324C14.6141 8.75813 15.3461 10.1699 16.601 10.4313C17.0193 10.5359 17.4376 10.4836 17.8036 10.3267L17.1762 13.3594L20.2088 13.9868C20.052 13.6208 19.9997 13.2025 20.1042 12.7842C20.3657 11.5293 21.7774 10.7973 23.0323 11.4248C23.6598 11.7385 24.078 12.4182 24.1303 13.0979C24.1303 13.7254 23.9212 14.3005 23.5029 14.6665L26.5355 15.294L27.8427 9.12413C28.1564 7.39867 27.0584 5.6732 25.3329 5.30719Z" fill="#4C45FB"/>
</svg>
