<svg width="230" height="53" viewBox="0 0 230 53" fill="none" xmlns="http://www.w3.org/2000/svg">
<g clip-path="url(#clip0_319_747)">
<path d="M40.4221 11.0531L36.2324 15.5194L21.3079 31.4259L2.39172 21.0123C5.9381 14.0452 13.0803 9.28943 21.3079 9.28943C26.3455 9.28943 30.9772 11.0733 34.6225 14.0587L32.4815 16.8152L35.3813 14.7116L40.4188 11.0531H40.4221Z" fill="url(#paint0_linear_319_747)"/>
<path d="M42.6159 31.0288C42.6159 43.0343 33.0753 52.7647 21.3113 52.7647C9.54718 52.7647 0 43.0343 0 31.0288C0 27.4173 0.864327 24.0112 2.39174 21.0157L22.3537 41.5635L37.9842 17.4985L41.4943 11.8508L38.7133 18.488L36.3347 24.1727L39.4159 19.5684C41.4448 22.8971 42.6159 26.8216 42.6159 31.0288Z" fill="url(#paint1_linear_319_747)"/>
<path d="M44.3017 7.60994L42.3322 13.6649C44.0114 16.0075 44.7338 18.5823 44.7338 18.5823L51.3713 0L33.8539 8.62976C33.8539 8.62976 36.1796 9.03365 38.5186 10.3093L44.3017 7.60994Z" fill="url(#paint2_linear_319_747)"/>
<path d="M0 31.0288C0 43.0344 9.54058 52.7647 21.308 52.7647C26.5533 52.7647 31.3533 50.8294 35.0646 47.6252C29.8391 50.6948 27.6057 46.9656 22.3537 41.5602L2.39174 21.0123C0.864327 24.0112 0 27.4173 0 31.0288Z" fill="url(#paint3_linear_319_747)"/>
<path d="M63.9899 14.4895V27.1178C63.9899 29.4233 65.6295 31.3182 67.6748 31.3182H69.8257C71.8711 31.3182 73.5107 29.4233 73.5107 27.1178V14.4895H77.5453V27.1178C77.5453 31.399 74.0748 34.859 69.8224 34.859H67.6715C63.4192 34.859 59.9487 31.399 59.9487 27.1178V14.4895H63.9833H63.9899Z" fill="#191933"/>
<path d="M85.1626 34.859H81.128V18.0841C81.128 16.1084 82.8237 14.4895 84.9218 14.4895H90.3552C94.6075 14.4895 98.078 17.1249 98.078 21.4061V22.1735C98.078 26.4547 94.6075 29.0901 90.3552 29.0901H85.4331L87.584 25.5493H90.3552C92.4005 25.5493 94.0401 24.479 94.0401 22.1735V21.4061C94.0401 19.1006 92.3972 18.0303 90.3552 18.0303H85.1626V34.859Z" fill="#191933"/>
<path d="M115.111 14.4895H119.416L113.55 31.537C112.851 33.5699 111.64 35.1316 109.542 35.1316C107.444 35.1316 106.233 33.5665 105.534 31.537L99.6681 14.4895H103.973L109.542 30.7393L115.111 14.4895Z" fill="#191933"/>
<path d="M122.269 32.1394L124.42 28.5987H129.801L126.383 18.6058L120.814 34.8556H116.509L122.375 17.8081C123.074 15.7752 124.285 14.2135 126.383 14.2135C128.481 14.2135 129.692 15.7786 130.391 17.8081L136.257 34.8556H131.952L131.011 32.1394H122.266H122.269Z" fill="#191933"/>
<path d="M146.563 17.9495L152.158 31.399V14.4895H156.192V31.399C156.192 33.3747 154.23 34.9936 152.128 34.9936C150.027 34.9936 148.955 33.3747 148.12 31.399L142.525 17.9495V34.8589H138.49V17.9495C138.49 15.9738 140.453 14.3549 142.551 14.3549C144.649 14.3549 145.725 15.9738 146.559 17.9495H146.563Z" fill="#191933"/>
<path d="M162.922 18.0303H158.94V14.4895H165.077L162.926 18.0303H162.922ZM164.321 34.859V18.0841C164.321 16.1084 166.017 14.4895 168.115 14.4895H174.089V18.0303H168.359V34.859H164.324H164.321Z" fill="#191933"/>
<path d="M178.154 32.1394L180.305 28.5987H185.685L182.267 18.6058L176.699 34.8556H172.394L178.259 17.8081C178.959 15.7752 180.169 14.2135 182.267 14.2135C184.366 14.2135 185.576 15.7786 186.276 17.8081L192.141 34.8556H187.836L186.896 32.1394H178.15H178.154Z" fill="#191933"/>
<path d="M203.876 14.4895C205.974 14.4895 208.989 15.341 210.388 16.7143L206.891 19.4607C206.218 18.5822 204.981 18.0336 203.879 18.0336H201.187C199.168 18.0336 197.555 19.9285 197.555 22.2341V27.1211C197.555 29.4267 199.198 31.3216 201.24 31.3216H206.432V24.7045H210.467V31.2644C210.467 33.24 208.771 34.859 206.673 34.859H201.24C196.987 34.859 193.517 31.399 193.517 27.1178V22.2307C193.517 17.9495 196.961 14.4895 201.184 14.4895H203.876Z" fill="#191933"/>
<path d="M217.814 31.3182H228.12L230.003 34.859H217.573C215.475 34.859 213.779 33.24 213.779 31.2644V18.0841C213.779 16.1084 215.475 14.4895 217.573 14.4895H230.003L228.12 18.0303H217.814V22.9981H227.311V26.5389H217.814V31.3148V31.3182Z" fill="#191933"/>
<path d="M64.5243 43.3137C65.6657 43.3137 66.5895 43.657 67.2855 44.347C67.9849 45.0336 68.3346 45.9323 68.3346 47.0362C68.3346 48.1402 67.9915 49.0388 67.302 49.7086C66.6125 50.3784 65.6888 50.715 64.5243 50.715H61.4167V43.3171H64.5243V43.3137ZM64.5243 44.1653H62.3173V49.8601H64.5243C65.4183 49.8601 66.121 49.6043 66.6323 49.0927C67.1437 48.5811 67.401 47.8911 67.401 47.0194C67.401 46.1477 67.1404 45.4712 66.6191 44.9495C66.0979 44.4278 65.3985 44.1653 64.5243 44.1653Z" fill="#3022CD"/>
<path d="M73.5635 50.7116V43.2733H74.4773V50.7116H73.5635Z" fill="#3022CD"/>
<path d="M85.8488 48.7056V47.6185H83.8727V46.767H86.7494V48.9917C86.3997 49.6077 85.9411 50.0822 85.3803 50.4087C84.8195 50.7352 84.1795 50.9001 83.4669 50.9001C82.3816 50.9001 81.4842 50.5366 80.7783 49.8029C80.0723 49.0725 79.716 48.1469 79.716 47.0261C79.716 45.9053 80.0723 44.973 80.7816 44.2427C81.4908 43.5123 82.3882 43.1488 83.4669 43.1488C84.1366 43.1488 84.7469 43.2969 85.3011 43.5964C85.8554 43.896 86.3007 44.3234 86.6471 44.8754L85.8916 45.424C85.664 44.9831 85.3341 44.6365 84.9053 44.384C84.4764 44.135 83.998 44.0071 83.4669 44.0071C82.6521 44.0071 81.9791 44.2932 81.4447 44.862C80.9102 45.4308 80.643 46.151 80.643 47.0228C80.643 47.8945 80.9102 48.6148 81.4447 49.1802C81.9791 49.749 82.6521 50.0317 83.4669 50.0317C83.975 50.0317 84.4269 49.9207 84.8228 49.6952C85.2187 49.473 85.5618 49.1398 85.8521 48.6955L85.8488 48.7056Z" fill="#3022CD"/>
<path d="M92.2521 50.7116V43.2733H93.1659V50.7116H92.2521Z" fill="#3022CD"/>
<path d="M100.242 50.7116V44.1653H97.1938V43.3137H104.204V44.1653H101.149V50.7116H100.242Z" fill="#3022CD"/>
<path d="M106.395 50.7116L109.948 43.3137H110.696L114.289 50.7116H113.309L112.323 48.7225H108.315L107.355 50.7116H106.388H106.395ZM108.734 47.8575H111.927L110.324 44.5792L108.734 47.8575Z" fill="#3022CD"/>
<path d="M119.026 50.7116V43.3137H119.927V49.8601H124.664V50.7116H119.03H119.026Z" fill="#3022CD"/>
<path d="M136.808 49.5975L137.332 48.7999C137.844 49.2071 138.378 49.5168 138.932 49.7322C139.486 49.9476 140.034 50.0553 140.578 50.0553C141.248 50.0553 141.792 49.9106 142.211 49.6211C142.63 49.3316 142.838 48.9581 142.838 48.5003C142.838 48.1368 142.686 47.8406 142.39 47.605C142.093 47.3694 141.674 47.2314 141.146 47.1877C141.021 47.1742 140.836 47.1607 140.595 47.1473C139.404 47.0631 138.592 46.9184 138.157 46.7198C137.821 46.5549 137.563 46.3429 137.388 46.0803C137.214 45.8178 137.124 45.525 137.124 45.1985C137.124 44.6028 137.385 44.1148 137.906 43.7311C138.428 43.3474 139.104 43.1555 139.935 43.1555C140.539 43.1555 141.136 43.2565 141.726 43.4618C142.317 43.6637 142.875 43.9667 143.406 44.3638L142.881 45.1278C142.436 44.761 141.964 44.485 141.472 44.2999C140.981 44.1148 140.473 44.0205 139.952 44.0205C139.404 44.0205 138.952 44.1282 138.599 44.347C138.246 44.5658 138.068 44.835 138.068 45.1615C138.068 45.2928 138.098 45.4106 138.154 45.5183C138.21 45.626 138.299 45.7269 138.418 45.8212C138.715 46.0501 139.358 46.1948 140.348 46.2554C140.803 46.2823 141.156 46.3126 141.406 46.3429C142.142 46.427 142.726 46.6693 143.155 47.0665C143.584 47.4637 143.798 47.9551 143.798 48.534C143.798 49.2273 143.505 49.7961 142.914 50.2438C142.324 50.6914 141.555 50.9135 140.598 50.9135C139.876 50.9135 139.203 50.8058 138.586 50.5904C137.966 50.375 137.375 50.0486 136.814 49.6043L136.808 49.5975Z" fill="#3022CD"/>
<path d="M152.339 50.9068C151.254 50.9068 150.357 50.5433 149.651 49.8096C148.945 49.0792 148.588 48.1536 148.588 47.0329C148.588 45.9121 148.945 44.9797 149.654 44.2494C150.363 43.519 151.26 43.1555 152.339 43.1555C153.418 43.1555 154.325 43.5224 155.038 44.2561C155.75 44.9898 156.11 45.9154 156.11 47.0362C156.11 48.157 155.754 49.0826 155.041 49.813C154.329 50.5433 153.428 50.9102 152.339 50.9102V50.9068ZM152.339 50.0418C153.154 50.0418 153.827 49.7591 154.361 49.1903C154.896 48.6215 155.163 47.9046 155.163 47.0329C155.163 46.1611 154.896 45.4341 154.365 44.8687C153.834 44.2999 153.157 44.0171 152.339 44.0171C151.521 44.0171 150.851 44.3032 150.317 44.872C149.783 45.4409 149.515 46.1611 149.515 47.0329C149.515 47.9046 149.783 48.6248 150.317 49.1903C150.851 49.7591 151.524 50.0418 152.339 50.0418Z" fill="#3022CD"/>
<path d="M161.326 50.7116V43.3137H162.226V49.8601H166.964V50.7116H161.329H161.326Z" fill="#3022CD"/>
<path d="M172.394 43.3137V48.1065C172.394 48.8739 172.535 49.3889 172.816 49.6514C173.096 49.9139 173.654 50.0452 174.482 50.0452C175.31 50.0452 175.864 49.9139 176.145 49.6514C176.425 49.3889 176.563 48.8739 176.563 48.1065V43.3137H177.471V48.3522C177.471 49.2643 177.24 49.9173 176.775 50.3111C176.309 50.7049 175.547 50.9035 174.482 50.9035C173.416 50.9035 172.654 50.7049 172.189 50.3111C171.724 49.9173 171.493 49.261 171.493 48.3522V43.3137H172.394Z" fill="#3022CD"/>
<path d="M184.369 50.7116V44.1653H181.321V43.3137H188.331V44.1653H185.276V50.7116H184.369Z" fill="#3022CD"/>
<path d="M192.362 50.7116V43.2733H193.276V50.7116H192.362Z" fill="#3022CD"/>
<path d="M202.262 50.9068C201.177 50.9068 200.28 50.5433 199.574 49.8096C198.868 49.0792 198.511 48.1536 198.511 47.0329C198.511 45.9121 198.868 44.9797 199.577 44.2494C200.286 43.519 201.184 43.1555 202.262 43.1555C203.341 43.1555 204.248 43.5224 204.961 44.2561C205.674 44.9898 206.033 45.9154 206.033 47.0362C206.033 48.157 205.677 49.0826 204.964 49.813C204.252 50.5433 203.351 50.9102 202.262 50.9102V50.9068ZM202.262 50.0418C203.077 50.0418 203.75 49.7591 204.285 49.1903C204.819 48.6215 205.086 47.9046 205.086 47.0329C205.086 46.1611 204.819 45.4341 204.288 44.8687C203.757 44.2999 203.081 44.0171 202.262 44.0171C201.444 44.0171 200.775 44.3032 200.24 44.872C199.706 45.4409 199.438 46.1611 199.438 47.0329C199.438 47.9046 199.706 48.6248 200.24 49.1903C200.775 49.7591 201.448 50.0418 202.262 50.0418Z" fill="#3022CD"/>
<path d="M211.249 50.7116V43.3137H211.72L216.425 48.8436V43.3137H217.332V50.7116H216.873L212.149 45.1817V50.7116H211.249Z" fill="#3022CD"/>
<path d="M222.435 49.5975L222.96 48.7999C223.471 49.2071 224.006 49.5168 224.56 49.7322C225.114 49.9476 225.662 50.0553 226.206 50.0553C226.876 50.0553 227.42 49.9106 227.839 49.6211C228.258 49.3316 228.466 48.9581 228.466 48.5003C228.466 48.1368 228.314 47.8406 228.017 47.605C227.72 47.3694 227.301 47.2314 226.774 47.1877C226.648 47.1742 226.464 47.1607 226.223 47.1473C225.032 47.0631 224.22 46.9184 223.785 46.7198C223.448 46.5549 223.191 46.3429 223.016 46.0803C222.841 45.8178 222.752 45.525 222.752 45.1985C222.752 44.6028 223.013 44.1148 223.534 43.7311C224.055 43.3474 224.732 43.1555 225.563 43.1555C226.167 43.1555 226.764 43.2565 227.354 43.4618C227.945 43.6637 228.502 43.9667 229.033 44.3638L228.509 45.1278C228.063 44.761 227.592 44.485 227.1 44.2999C226.609 44.1148 226.101 44.0205 225.579 44.0205C225.032 44.0205 224.58 44.1282 224.227 44.347C223.874 44.5658 223.696 44.835 223.696 45.1615C223.696 45.2928 223.725 45.4106 223.781 45.5183C223.838 45.626 223.927 45.7269 224.045 45.8212C224.342 46.0501 224.986 46.1948 225.975 46.2554C226.431 46.2823 226.784 46.3126 227.034 46.3429C227.77 46.427 228.354 46.6693 228.783 47.0665C229.212 47.4637 229.426 47.9551 229.426 48.534C229.426 49.2273 229.132 49.7961 228.542 50.2438C227.951 50.6914 227.183 50.9135 226.226 50.9135C225.504 50.9135 224.831 50.8058 224.214 50.5904C223.593 50.375 223.003 50.0486 222.442 49.6043L222.435 49.5975Z" fill="#3022CD"/>
</g>
<defs>
<linearGradient id="paint0_linear_319_747" x1="2.39172" y1="20.3593" x2="40.4221" y2="20.3593" gradientUnits="userSpaceOnUse">
<stop stop-color="#1E1874"/>
<stop offset="0.01" stop-color="#1E1875"/>
<stop offset="0.29" stop-color="#251C97"/>
<stop offset="0.56" stop-color="#2A1FB0"/>
<stop offset="0.8" stop-color="#2D21BE"/>
<stop offset="1" stop-color="#2F22C4"/>
</linearGradient>
<linearGradient id="paint1_linear_319_747" x1="0" y1="32.3077" x2="42.6159" y2="32.3077" gradientUnits="userSpaceOnUse">
<stop stop-color="#1E1874"/>
<stop offset="0.01" stop-color="#1E1875"/>
<stop offset="0.29" stop-color="#251C97"/>
<stop offset="0.56" stop-color="#2A1FB0"/>
<stop offset="0.8" stop-color="#2D21BE"/>
<stop offset="1" stop-color="#2F22C4"/>
</linearGradient>
<linearGradient id="paint2_linear_319_747" x1="33.8572" y1="9.28944" x2="51.3713" y2="9.28944" gradientUnits="userSpaceOnUse">
<stop stop-color="#1E1874"/>
<stop offset="0.01" stop-color="#1E1875"/>
<stop offset="0.29" stop-color="#251C97"/>
<stop offset="0.56" stop-color="#2A1FB0"/>
<stop offset="0.8" stop-color="#2D21BE"/>
<stop offset="1" stop-color="#2F22C4"/>
</linearGradient>
<linearGradient id="paint3_linear_319_747" x1="0" y1="36.8885" x2="35.0646" y2="36.8885" gradientUnits="userSpaceOnUse">
<stop stop-color="#1E1874"/>
<stop offset="0.01" stop-color="#1E1875"/>
<stop offset="0.29" stop-color="#251C97"/>
<stop offset="0.56" stop-color="#2A1FB0"/>
<stop offset="0.8" stop-color="#2D21BE"/>
<stop offset="1" stop-color="#2F22C4"/>
</linearGradient>
<clipPath id="clip0_319_747">
<rect width="230" height="52.7647" fill="white"/>
</clipPath>
</defs>
</svg>
