<svg width="32" height="32" viewBox="0 0 32 32" fill="none" xmlns="http://www.w3.org/2000/svg">
<g clip-path="url(#clip0_182_9661)">
<path d="M24.7646 11.7238H24.4117H19.9999H19.647L17.7646 21.5649H19.9999H24.4117H26.647L24.7646 11.7238Z" fill="#C9C7FE"/>
<path d="M27.4118 24.3766V23.4979H24.8235H20.0588H19.5882C17.2941 23.4979 15.4706 25.3724 15.4706 27.5983V30H20.0588H27.4118H29V27.5983C29 26.3096 28.3529 25.1381 27.4118 24.3766Z" fill="#C9C7FE"/>
<path d="M25.5883 24.0837H17.8824C17.2353 24.0837 16.7059 23.5565 16.7059 22.9121V22.4435C16.7059 21.7992 17.2353 21.272 17.8824 21.272H25.5883V24.0837Z" fill="#C9C7FE"/>
<path d="M21.2354 24.0837H26.5295C27.1765 24.0837 27.7059 23.5565 27.7059 22.9121V22.4435C27.7059 21.7992 27.1765 21.272 26.5295 21.272H21.2354V24.0837Z" fill="#C9C7FE"/>
<path d="M20.0588 14.5356H19.5882C18.4706 14.5356 17.5294 13.5983 17.5294 12.4854V9.43933C17.5294 9.08787 17.8235 8.79498 18.1765 8.79498H19.4706C19.8235 8.79498 20.1177 9.08787 20.1177 9.43933V14.5356H20.0588Z" fill="#C9C7FE"/>
<path d="M23.4706 14.5356H23C21.8823 14.5356 20.9412 13.5983 20.9412 12.4854V9.43933C20.9412 9.08787 21.2353 8.79498 21.5882 8.79498H22.8823C23.2353 8.79498 23.5294 9.08787 23.5294 9.43933V14.5356H23.4706Z" fill="#C9C7FE"/>
<path d="M24.2942 14.5356H24.7648C25.8824 14.5356 26.8236 13.5983 26.8236 12.4854V9.43933C26.8236 9.08787 26.5295 8.79498 26.1765 8.79498H24.8824C24.5295 8.79498 24.2354 9.08787 24.2354 9.43933V14.5356H24.2942Z" fill="#C9C7FE"/>
<path d="M11.1764 3.40586C11.1764 4.16736 10.5294 4.81172 9.76468 4.81172C8.99998 4.81172 8.41174 4.16736 8.41174 3.40586C8.41174 2.64435 9.0588 2 9.82351 2C10.5882 2 11.1764 2.64435 11.1764 3.40586Z" fill="#4C45FB"/>
<path d="M12.647 7.09623C12.647 8.67782 11.3529 10.5523 9.76468 10.5523C8.17644 10.5523 6.88232 8.67782 6.88232 7.09623C6.88232 5.51464 8.17644 4.22594 9.76468 4.22594C11.3529 4.22594 12.647 5.51464 12.647 7.09623Z" fill="#4C45FB"/>
<path d="M13.2942 6.45189H11.1177H8.4118H6.23533C5.35298 6.45189 4.76474 7.44771 5.29415 8.20921L6.47062 10.6109H9.05886H10.4706H13.0589L14.2353 8.20921C14.7647 7.44771 14.2353 6.45189 13.2942 6.45189Z" fill="#4C45FB"/>
<path d="M12.3529 11.7238H11.9411H7.5882H7.17643L5.35291 21.5649H7.5882H11.9411H14.2353L12.3529 11.7238Z" fill="#4C45FB"/>
<path d="M15 24.3766V23.4979H12.4118H7.64706H7.11765C4.82353 23.4979 3 25.3724 3 27.5983V30H7.64706H15H16.5294V27.5983C16.5294 26.3096 15.9412 25.1381 15 24.3766Z" fill="#4C45FB"/>
<path d="M11.9412 12.5439H6.76474C6.11768 12.5439 5.64709 12.0167 5.64709 11.431C5.64709 10.7866 6.17651 10.318 6.76474 10.318H12V12.5439H11.9412Z" fill="#4C45FB"/>
<path d="M7.58826 12.5439H12.8236C13.4706 12.5439 13.9412 12.0167 13.9412 11.431C13.9412 10.7866 13.4118 10.318 12.8236 10.318H7.58826V12.5439Z" fill="#4C45FB"/>
<path d="M13.1764 24.0837H5.47054C4.82348 24.0837 4.29407 23.5565 4.29407 22.9121V22.4435C4.29407 21.7992 4.82348 21.272 5.47054 21.272H13.1764V24.0837Z" fill="#4C45FB"/>
<path d="M8.82349 24.0837H14.1176C14.7647 24.0837 15.2941 23.5565 15.2941 22.9121V22.4435C15.2941 21.7992 14.7647 21.272 14.1176 21.272H8.82349V24.0837Z" fill="#4C45FB"/>
</g>
<defs>
<clipPath id="clip0_182_9661">
<rect width="26" height="28" fill="white" transform="translate(3 2)"/>
</clipPath>
</defs>
</svg>
