<svg width="32" height="32" viewBox="0 0 32 32" fill="none" xmlns="http://www.w3.org/2000/svg">
<path d="M6.57243 12.3834H8.9356C9.91396 12.3834 10.708 13.1907 10.708 14.1854V26.1981C10.708 27.1927 9.91396 28 8.9356 28H6.57243C5.59407 28 4.80005 27.1927 4.80005 26.1981V14.1854C4.80005 13.1907 5.59407 12.3834 6.57243 12.3834Z" fill="#4C45FB"/>
<path d="M20.5673 27.9994H13.0725C11.7669 27.9994 10.7094 26.9242 10.7094 25.5968V13.7667C10.7094 12.8766 11.0331 12.0176 11.6192 11.3557L14.52 8.07987L14.9678 5.33857C15.1698 4.10366 16.6161 3.5787 17.5566 4.38716C18.3188 5.04185 18.9805 6.01368 18.9805 7.41437C18.9805 9.53582 17.7989 12.3828 17.7989 12.3828H23.7068C25.6647 12.3828 27.2516 13.9961 27.2516 15.9867V17.5868C27.2516 18.1153 27.1369 18.6379 26.916 19.116L23.7765 25.9248C23.1928 27.1909 21.9427 27.9994 20.5673 27.9994Z" fill="#C9C7FE"/>
</svg>
