<svg width="32" height="32" viewBox="0 0 32 32" fill="none" xmlns="http://www.w3.org/2000/svg">
<mask id="mask0_182_9659" style="mask-type:alpha" maskUnits="userSpaceOnUse" x="5" y="5" width="25" height="25">
<rect x="5.59998" y="5.6" width="24" height="24" fill="#D9D9D9"/>
</mask>
<g mask="url(#mask0_182_9659)">
<rect x="9.59998" y="9.6" width="13.6" height="13.6" fill="#E4E3FE" stroke="#4C45FB" stroke-width="2"/>
<path d="M17.904 20.1068L19.8236 26.3664C20.3562 28.103 22.7411 28.2877 23.5347 26.6538L24.369 24.9361C24.5726 24.517 24.9162 24.182 25.3404 23.9892L26.6448 23.3963C28.2923 22.6474 28.1773 20.2698 26.4652 19.6835L20.4641 17.6283C18.9188 17.0991 17.4251 18.5452 17.904 20.1068Z" fill="#4C45FB"/>
<mask id="path-4-inside-1_182_9659" fill="white">
<rect x="5.59998" y="5.6" width="4.68293" height="4.68293" rx="1"/>
</mask>
<rect x="5.59998" y="5.6" width="4.68293" height="4.68293" rx="1" fill="#C9C7FE" stroke="#C9C7FE" stroke-width="4" mask="url(#path-4-inside-1_182_9659)"/>
<mask id="path-5-inside-2_182_9659" fill="white">
<rect x="5.59998" y="5.6" width="6.6" height="6.6" rx="1"/>
</mask>
<rect x="5.59998" y="5.6" width="6.6" height="6.6" rx="1" fill="#C9C7FE" stroke="#C9C7FE" stroke-width="4" mask="url(#path-5-inside-2_182_9659)"/>
<mask id="path-6-inside-3_182_9659" fill="white">
<rect x="20" y="5.6" width="6.6" height="6.6" rx="1"/>
</mask>
<rect x="20" y="5.6" width="6.6" height="6.6" rx="1" fill="#C9C7FE" stroke="#C9C7FE" stroke-width="4" mask="url(#path-6-inside-3_182_9659)"/>
<mask id="path-7-inside-4_182_9659" fill="white">
<rect x="5.59998" y="20" width="6.6" height="6.6" rx="1"/>
</mask>
<rect x="5.59998" y="20" width="6.6" height="6.6" rx="1" fill="#C9C7FE" stroke="#C9C7FE" stroke-width="4" mask="url(#path-7-inside-4_182_9659)"/>
<mask id="path-8-inside-5_182_9659" fill="white">
<rect x="21.4048" y="5.6" width="4.68293" height="4.68293" rx="1"/>
</mask>
<rect x="21.4048" y="5.6" width="4.68293" height="4.68293" rx="1" fill="#C9C7FE" stroke="#C9C7FE" stroke-width="4" mask="url(#path-8-inside-5_182_9659)"/>
</g>
</svg>
