<svg width="32" height="32" viewBox="0 0 32 32" fill="none" xmlns="http://www.w3.org/2000/svg">
<path d="M27.3214 24.0451C26.9889 23.7126 25.0716 21.7952 24.0764 20.8C23.2434 22.123 22.1231 23.2434 20.8 24.0763C21.7952 25.0715 23.7126 26.9889 24.0451 27.3214C24.9499 28.2262 26.4166 28.2262 27.3214 27.3214C28.2263 26.4166 28.2263 24.9499 27.3214 24.0451Z" fill="#4C45FB"/>
<path d="M14.8 25.6C20.7647 25.6 25.6 20.7647 25.6 14.8C25.6 8.83533 20.7647 4 14.8 4C8.83533 4 4 8.83533 4 14.8C4 20.7647 8.83533 25.6 14.8 25.6Z" fill="#C9C7FE"/>
</svg>
