<svg width="32" height="32" viewBox="0 0 32 32" fill="none" xmlns="http://www.w3.org/2000/svg">
<path d="M13.0369 23.6635V28.5814C13.0369 28.7384 13.0369 28.843 13.0369 29H18.635C18.635 28.8954 18.635 28.7384 18.635 28.5814V23.6635H13.0369Z" fill="#4C45FB"/>
<path d="M27.9477 24.2913C27.9477 24.7622 27.5814 25.1807 27.0583 25.1807H4.71815C4.24729 25.1807 3.82874 24.8145 3.82874 24.2913V8.70032C3.82874 8.22946 4.19497 7.81091 4.71815 7.81091H27.1106C27.5814 7.81091 28 8.17714 28 8.70032V24.2913H27.9477Z" fill="#4C45FB"/>
<path d="M3.82874 20.9429V24.2913C3.82874 24.7622 4.19497 25.1807 4.71815 25.1807H27.1106C27.5814 25.1807 28 24.8145 28 24.2913V20.9429H3.82874Z" fill="#938BFF"/>
<path d="M11.7812 28.7907H20.0476" stroke="#4C45FB"/>
<path d="M21.6172 3.73004L25.698 7.8109V20.9952H6.86328V3.73004H21.6172Z" fill="#C9C7FE"/>
<path d="M21.6172 3.73004V7.8109H25.6981" fill="#8981FE"/>
<path d="M13.6646 9.11888H10.0546V12.7289H13.6646V9.11888Z" fill="#8981FE"/>
<path d="M10.9964 10.2176L12.0428 11.2639L14.711 8.64801" stroke="#4C45FB"/>
<path d="M16.3329 10.2176H22.6112" stroke="#4A3AFF"/>
<path d="M16.3329 12.3103H21.0416" stroke="#4A3AFF"/>
<path d="M13.6646 14.8739H10.0546V18.4839H13.6646V14.8739Z" fill="#8981FE"/>
<path d="M10.9964 15.9203L12.0428 16.9667L14.711 14.3508" stroke="#4C45FB"/>
<path d="M16.3329 15.9203H22.6112" stroke="#4A3AFF"/>
<path d="M16.3329 18.0131H21.0416" stroke="#4A3AFF"/>
</svg>
